HIERARCHY
ROOT Hips
{
	OFFSET 0.000000 0.000000 0.000000 
	CHANNELS 6 Xposition Yposition Zposition Zrotation Yrotation Xrotation
	JOINT LeftUpLeg
	{
		OFFSET 1.363060 -1.794630 0.839290 
		CHANNELS 3 Zrotation Yrotation Xrotation
		JOINT LeftLeg
		{
			OFFSET 2.448110 -6.726130 0.000000 
			CHANNELS 3 Zrotation Yrotation Xrotation
			JOINT LeftFoot
			{
				OFFSET 2.562200 -7.039590 0.000000 
				CHANNELS 3 Zrotation Yrotation Xrotation
				JOINT LeftToeBase
				{
					OFFSET 0.157640 -0.433110 2.322550 
					CHANNELS 3 Zrotation Yrotation Xrotation
					End Site
					{
						OFFSET 0.000000 0.000000 0.000000 
					}
				}
			}
		}
	}
	JOINT RightUpLeg
	{
		OFFSET -1.305520 -1.794630 0.839290 
		CHANNELS 3 Zrotation Yrotation Xrotation
		JOINT RightLeg
		{
			OFFSET -2.542530 -6.985550 0.000000 
			CHANNELS 3 Zrotation Yrotation Xrotation
			JOINT RightFoot
			{
				OFFSET -2.568260 -7.056230 0.000000 
				CHANNELS 3 Zrotation Yrotation Xrotation
				JOINT RightToeBase
				{
					OFFSET -0.164730 -0.452590 2.363150 
					CHANNELS 3 Zrotation Yrotation Xrotation
					End Site
					{
						OFFSET 0.000000 0.000000 0.000000 
					}
				}
			}
		}
	}
	JOINT Spine
	{
		OFFSET 0.028270 2.035590 -0.193380 
		CHANNELS 3 Zrotation Yrotation Xrotation
		JOINT Spine1
		{
			OFFSET 0.056720 2.048850 -0.042750 
			CHANNELS 3 Zrotation Yrotation Xrotation
			JOINT Neck1
			{
				OFFSET -0.054170 1.746240 0.172020 
				CHANNELS 3 Zrotation Yrotation Xrotation
				JOINT Head
				{
					OFFSET 0.104070 1.761360 -0.123970 
					CHANNELS 3 Zrotation Yrotation Xrotation
					End Site
					{
						OFFSET 0.000000 0.000000 0.000000 
					}
				}
			}
			JOINT LeftArm
			{
				OFFSET 3.362410 1.200890 -0.311210 
				CHANNELS 3 Zrotation Yrotation Xrotation
				JOINT LeftForeArm
				{
					OFFSET 4.983000 -0.000000 -0.000000 
					CHANNELS 3 Zrotation Yrotation Xrotation
					JOINT LeftHand
					{
						OFFSET 3.483560 -0.000000 -0.000000 
						CHANNELS 3 Zrotation Yrotation Xrotation
						JOINT LeftHandIndex1
						{
							OFFSET 0.715260 -0.000000 -0.000000 
							CHANNELS 3 Zrotation Yrotation Xrotation
							End Site
							{
								OFFSET 0.000000 0.000000 0.000000 
							}
						}
					}
				}
			}
			JOINT RightArm
			{
				OFFSET -3.136600 1.374050 -0.404650 
				CHANNELS 3 Zrotation Yrotation Xrotation
				JOINT RightForeArm
				{
					OFFSET -5.241900 -0.000000 -0.000000 
					CHANNELS 3 Zrotation Yrotation Xrotation
					JOINT RightHand
					{
						OFFSET -3.444170 -0.000000 -0.000000 
						CHANNELS 3 Zrotation Yrotation Xrotation
						JOINT RightHandIndex1
						{
							OFFSET -0.622530 -0.000000 -0.000000 
							CHANNELS 3 Zrotation Yrotation Xrotation
							End Site
							{
								OFFSET 0.000000 0.000000 0.000000 
							}
						}
					}
				}
			}
		}
	}
}
MOTION
Frames: 6
Frame Time: 0.041667
6.484118 17.161291 -2.682220 -168.739187 -82.973474 169.173070 -9.659396 6.266402 -27.416514 6.649294 16.858360 51.040387 2.812332 -4.387944 -0.726113 0.543800 -4.724600 -13.124700 13.802756 -0.716512 -26.693503 -6.453935 -17.248270 50.766651 2.526612 -9.613671 -6.260321 -0.436300 4.238500 -11.748600 0.429527 1.290581 -2.530953 2.847315 0.470951 0.495162 6.283322 -13.612658 4.652214 10.613600 -4.928300 -0.880900 2.926017 -44.225607 -8.365593 34.733236 -41.272334 -19.664463 -0.967815 -4.013330 0.846246 -7.125000 0.000000 0.000000 -1.373611 49.820209 -13.111883 -31.323318 39.460953 -19.630649 -1.799515 0.338220 -2.132641 7.125000 0.000000 0.000000 
6.485161 17.163378 -2.682220 -169.511980 -82.976853 169.927638 -9.748614 6.280623 -27.400507 6.634847 16.856665 51.017571 2.834249 -4.452355 -0.734541 0.527600 -4.654600 -12.926000 13.706675 -0.746396 -26.673780 -6.456341 -17.239644 50.746723 2.538800 -9.632587 -6.174060 -0.436600 4.239900 -11.752600 0.427200 1.282396 -2.528411 2.929297 0.466507 0.492502 6.361555 -13.647469 4.625003 10.737600 -4.929000 -0.898100 3.027093 -44.159638 -8.380310 34.770761 -41.293527 -19.697995 -0.972819 -4.015510 0.786705 -7.125000 0.000000 0.000000 -1.435487 49.824319 -13.202346 -31.319744 39.467202 -19.637466 -1.794602 0.322140 -2.196605 7.125000 0.000000 0.000000 
6.486205 17.161060 -2.682452 -169.499217 -82.960298 169.895932 -9.735382 6.296436 -27.401017 6.645169 16.862311 51.042713 2.864501 -4.534584 -0.756703 0.510400 -4.579400 -12.712700 13.714929 -0.722755 -26.651758 -6.460699 -17.244753 50.764941 2.547174 -9.657379 -6.205831 -0.470500 4.399100 -12.202400 0.426114 1.280024 -2.519127 2.950088 0.464390 0.566432 6.425066 -13.676902 4.622678 10.840000 -4.932400 -0.894500 3.216209 -44.171214 -8.551298 34.700780 -41.265102 -19.637270 -0.971764 -4.003296 0.786281 -7.125000 0.000000 0.000000 -1.621719 49.825954 -13.406153 -31.273060 39.459617 -19.613484 -1.781137 0.301752 -2.255121 7.125000 0.000000 0.000000 
6.488060 17.156770 -2.682800 -168.892528 -82.946695 169.290070 -9.659553 6.311531 -27.433572 6.668979 16.869466 51.092899 2.869875 -4.549004 -0.754487 0.515500 -4.601700 -12.775900 13.797554 -0.684536 -26.669942 -6.465621 -17.258010 50.805909 2.539485 -9.652771 -6.316167 -0.490500 4.490700 -12.461300 0.425455 1.275920 -2.521055 2.894616 0.468998 0.546245 6.435304 -13.645088 4.644435 10.864200 -4.923700 -0.885800 3.255563 -44.162812 -8.537071 34.705468 -41.264720 -19.631418 -0.973700 -4.000190 0.745643 -7.125000 0.000000 0.000000 -1.651165 49.773822 -13.426143 -31.283394 39.461927 -19.629065 -1.776573 0.302826 -2.326462 7.125000 0.000000 0.000000 
6.490147 17.150626 -2.683495 -168.331004 -82.951528 168.732962 -9.595155 6.341996 -27.476001 6.695769 16.880436 51.157843 2.884946 -4.605096 -0.681931 0.516100 -4.604500 -12.784000 13.874126 -0.678271 -26.680726 -6.475596 -17.270964 50.856172 2.519826 -9.612199 -6.375641 -0.468600 4.390400 -12.177800 0.427215 1.266801 -2.521883 2.856093 0.463816 0.554833 6.395676 -13.654024 4.669050 10.803200 -4.938500 -0.857100 3.300852 -44.119874 -8.543682 34.753332 -41.284969 -19.672133 -0.966609 -4.003770 0.703768 -7.125000 0.000000 0.000000 -1.706989 49.766191 -13.520964 -31.318811 39.478298 -19.664863 -1.777098 0.315656 -2.417871 7.125000 0.000000 0.000000 
6.492929 17.146452 -2.684075 -168.332272 -82.955364 168.733927 -9.593768 6.357502 -27.519900 6.718608 16.896608 51.225151 2.921109 -4.719404 -0.658615 0.491100 -4.493200 -12.468600 13.881417 -0.678173 -26.692691 -6.491346 -17.281176 50.902262 2.518140 -9.605490 -6.357619 -0.460200 4.351800 -12.068400 0.430891 1.260261 -2.517798 2.899787 0.449014 0.622621 6.343462 -13.696828 4.682342 10.731100 -4.961300 -0.817300 3.345195 -44.068639 -8.614460 34.775480 -41.291845 -19.704759 -0.953798 -4.002986 0.699793 -7.125000 0.000000 0.000000 -1.904202 49.809397 -13.759510 -31.318123 39.487610 -19.670439 -1.773984 0.318711 -2.478924 7.125000 0.000000 0.000000 
